<?xml version="1.0" encoding="UTF-8"?>
<!DOCTYPE svg PUBLIC "-//W3C//DTD SVG 1.1//EN" "http://www.w3.org/Graphics/SVG/1.1/DTD/svg11.dtd">
<svg xmlns="http://www.w3.org/2000/svg" version="1.1" width="118px" height="118px" style="shape-rendering:geometricPrecision; text-rendering:geometricPrecision; image-rendering:optimizeQuality; fill-rule:evenodd; clip-rule:evenodd" xmlns:xlink="http://www.w3.org/1999/xlink">
<g><path fill="#5b6349" fill-opacity="0.094" stroke="#5b6349" stroke-width="0.5" stroke-opacity="0.094" d="M 36.56,10.16 c 0.52,0.4 0.99,0.86 1.4,1.37 c -9.9,4.41 -17.82,11.16 -23.74,20.24 c -1.99,3.44 -3.82,6.96 -5.48,10.56 c -0.26,-0.13 -0.52,-0.25 -0.78,-0.38 c -0.15,-0.78 -0.1,-1.55 0.16,-2.31 c 5.56,-13.62 15.04,-23.45 28.44,-29.48 Z M 108.47,75.18 c 0.5,0.23 0.98,0.5 1.43,0.81 c -2.73,8.39 -7.2,15.72 -13.39,22.02 c -1.25,1.47 -2.77,2.54 -4.54,3.22 c -0.08,-0.5 -0.16,-1 -0.25,-1.5 c 7.91,-6.6 13.49,-14.78 16.75,-24.55 Z"/></g>
<g><path fill="#5e5e46" fill-opacity="0.106" stroke="#5e5e46" stroke-width="0.5" stroke-opacity="0.106" d="M 7.96,41.95 c 0.26,0.13 0.52,0.25 0.78,0.38 c -1.08,4.32 -1.91,8.7 -2.49,13.14 c 0.03,2.99 0.05,5.98 0.06,8.96 c 0.57,3.64 1.22,7.26 1.95,10.86 c -0.41,0.25 -0.83,0.49 -1.25,0.72 c -0.82,-2.8 -1.5,-5.64 -2.05,-8.5 c -0.08,-2.96 -0.27,-5.91 -0.55,-8.85 c 0.02,-2.54 1.11,-15.91 3.55,-16.71 Z"/></g>
<g><path fill="#695a48" fill-opacity="0.149" stroke="#695a48" stroke-width="0.5" stroke-opacity="0.149" d="M 91.72,99.73 c 0.09,0.5 0.17,1 0.25,1.5 c 0.2,1.38 -6.37,4.82 -7.58,5.66 c -2.72,1.58 -5.6,2.72 -8.65,3.43 c -0.28,-0.42 -0.52,-0.86 -0.74,-1.32 c 6.19,-1.99 11.76,-5.08 16.72,-9.27 Z"/></g>
<g><path fill="#7a5649" fill-opacity="0.996" stroke="#7a5649" stroke-width="0.5" stroke-opacity="0.996" d="M 1.02,59.06 c 1.01,-51.31 61.67,-76.02 98.36,-39.93 c 35.43,37.13 9.88,97.58 -40.9,97.77 c -32.22,-0.01 -57.37,-25.72 -57.46,-57.84 Z M 36.56,10.16 c -13.4,6.03 -22.88,15.86 -28.44,29.48 c -0.26,0.76 -0.31,1.53 -0.16,2.31 c -2.44,0.8 -3.53,14.17 -3.55,16.71 c 0.28,2.94 0.47,5.89 0.55,8.85 c 0.55,2.86 1.23,5.7 2.05,8.5 c 7.02,20.26 23.16,33.99 44.49,37.02 c 6.56,0.32 13.6,0.64 19.96,-1.16 c 1.43,-0.58 2.86,-1.09 4.28,-1.55 c 3.05,-0.71 5.93,-1.85 8.65,-3.43 c 1.21,-0.84 7.78,-4.28 7.58,-5.66 c 1.77,-0.68 3.29,-1.75 4.54,-3.22 c 6.19,-6.3 10.66,-13.63 13.39,-22.02 c 2.97,-10.03 3.19,-20.12 0.66,-30.28 c -6.42,-22.79 -25.92,-39.57 -50.06,-39.95 c -8.34,-0.55 -16.33,0.92 -23.94,4.4 Z M 108.47,75.18 c -3.26,9.77 -8.84,17.95 -16.75,24.55 c -4.96,4.19 -10.53,7.28 -16.72,9.27 c -1.86,0.67 -3.76,1.24 -5.68,1.7 c -2.03,0.16 -4.03,0.48 -6.01,0.95 c -6.62,0.58 -12.99,-0.23 -19.38,-1.92 c -13.99,-4.3 -24.53,-12.85 -31.62,-25.66 c -1.43,-2.94 -2.78,-5.86 -4.05,-8.78 c -0.73,-3.6 -1.38,-7.22 -1.95,-10.86 c -0.01,-2.98 -0.03,-5.97 -0.06,-8.96 c 0.58,-4.44 1.41,-8.82 2.49,-13.14 c 1.66,-3.6 3.49,-7.12 5.48,-10.56 c 5.92,-9.08 13.84,-15.83 23.74,-20.24 c 6.89,-2.88 14.07,-4.37 21.54,-4.46 c 18.77,1.17 33.34,9.59 43.69,25.28 c 7.92,13.31 9.76,27.96 5.28,42.83 Z M 31.05,93 c -0.2,1.07 0,2.02 0.61,2.87 c 1.36,0.47 2.12,0.02 2.28,-1.36 c -0.01,-23.34 -0.01,-46.68 -0.01,-70.02 c 0.58,-3.16 -3.47,-3.18 -2.88,0 c 0.01,22.83 0.01,45.67 0,68.51 Z M 36.24,93 c -0.18,1.01 -0.01,1.94 0.5,2.79 c 1.42,0.7 2.18,0.28 2.29,-1.25 c -0.05,-23.68 -0.07,-47.35 -0.07,-71.03 c -0.03,-2.37 -3.24,-1.59 -2.71,1.01 c 0,22.83 -0.01,45.66 -0.01,68.48 Z M 41.57,25 c 0.02,23.19 0.01,46.38 -0.01,69.57 c 0.18,2.19 2.88,1.75 2.65,0.01 c 0.02,-23.38 0.03,-46.76 0.04,-70.13 c 0.19,-3.33 -2.96,-3.14 -2.68,0.55 Z M 54.08,43 c 0.08,4.52 1.55,8.52 4.39,12.02 c 1.44,1.39 2.8,2.84 4.06,4.34 c -1.11,1.08 -2.24,2.16 -3.39,3.22 c -12.41,13.91 -0.47,35.93 18.33,33.22 c 14.92,-2.82 21.75,-19.39 12.91,-31.81 c -1.4,-1.56 -2.81,-3.09 -4.22,-4.59 c -0.03,-0.53 0.14,-0.97 0.53,-1.32 c 19.63,-15.41 -2,-45.93 -23.39,-32.4 c -5.95,4.24 -9.02,10.02 -9.22,17.32 Z M 56.28,74.96 c 0.52,-5.61 3.09,-10.05 7.72,-13.32 c 0.75,-0.46 2.15,-1.17 2.75,-0.11 c -1.82,1.44 -3.51,3.03 -5.09,4.78 c -11.07,15.05 7.61,33.26 22.28,22 c 5.12,-4.33 6.98,-9.77 5.59,-16.32 c -2.11,-6.65 -6.61,-10.51 -13.5,-11.58 c -2.13,-0.18 -4.24,-0.44 -6.35,-0.77 c -10.43,-3.19 -16.11,-13.15 -12.14,-23.64 c 4.34,-9.83 15.98,-14.12 25.45,-8.64 c 11.68,6.99 12.45,23.61 0.04,30.12 c -0.75,0.12 -1.27,-0.17 -1.55,-0.86 c 1.29,-0.87 2.52,-1.86 3.69,-2.96 c 5.62,-5.37 6.25,-13.12 2.25,-19.68 c -5.71,-8.53 -18.12,-10.06 -24.95,-1.99 c -4.15,5.04 -5.11,10.63 -2.88,16.78 c 2.54,4.92 6.52,7.94 11.94,9.04 c 1.99,0.08 3.97,0.28 5.94,0.58 c 15.68,3.68 19.88,22.7 6.65,32.24 c -5.15,3.4 -10.62,4.04 -16.41,1.91 c -7.66,-3.36 -11.47,-9.22 -11.43,-17.58 Z M 60.73,43 c 0.37,-18.62 25.55,-18.69 27.07,-0.5 c -1.21,17.91 -26.59,17.14 -27.07,0.5 Z M 63.14,42.01 c 0.1,10.01 11.22,15.11 18.74,8.25 c 13.63,-14.57 -15.33,-29.4 -18.74,-8.25 Z M 65.54,43 c 0.06,-9.35 11.5,-12.69 16.19,-4.33 c 5.71,12.12 -14.29,18.23 -16.19,4.33 Z M 61.63,81.07 c 0.55,-1.27 0.27,-2.28 -0.82,-3.03 c -0.17,-1.36 -0.17,-2.72 -0.02,-4.09 c 1.45,-0.09 1.2,-2.1 0.8,-3.01 c 6.25,-13.24 24.73,-10.02 26.11,4.57 c -0.43,15.11 -19.41,19.2 -26.07,5.56 Z M 72.95,64.91 c -2.18,0.29 -4.11,1.13 -5.8,2.52 c -0.53,0.04 -0.82,0.32 -0.89,0.85 c -0.55,0.04 -0.81,0.33 -0.76,0.89 c -1.36,1.75 -2.14,3.74 -2.37,5.95 c -1.28,0.6 -1.28,1.19 0.01,1.76 c 0.25,2.2 1.04,4.18 2.37,5.95 c -0.07,0.57 0.18,0.86 0.75,0.88 c 0.14,0.56 0.5,0.89 1.06,1.01 c 1.64,1.33 3.52,2.13 5.62,2.39 c 0.48,0.7 1.87,1.21 2.12,0.05 c 3.2,-0.36 5.8,-1.79 7.82,-4.3 c 0.54,-0.12 0.78,-0.46 0.71,-1.02 c 0.55,-0.93 0.97,-1.9 1.28,-2.93 c 0.36,0 0.6,-0.18 0.71,-0.53 c -0.17,-1.01 0.86,-5.15 -0.68,-5.31 c -1.59,-4.77 -4.87,-7.5 -9.85,-8.19 c -0.7,-0.89 -1.4,-0.88 -2.1,0.03 Z M 65.53,76 c 0.85,-11.7 15.8,-11.99 17.28,-0.47 c -0.76,12.26 -16.34,12.19 -17.28,0.47 Z"/></g>
<g><path fill="#8b6d61" d="M 84.9,73.07 c 1.54,0.16 0.51,4.3 0.68,5.31 c -0.11,0.35 -0.35,0.53 -0.71,0.53 c 0.5,-1.95 0.51,-3.89 0.03,-5.84 Z M 60.81,78.04 c 1.09,0.75 1.37,1.76 0.82,3.03 c -0.37,-0.98 -0.64,-1.99 -0.82,-3.03 Z M 83.59,81.84 c 0.07,0.56 -0.17,0.9 -0.71,1.02 c 0.24,-0.34 0.48,-0.68 0.71,-1.02 Z"/></g>
<g><path fill="#896a5e" d="M 61.59,70.94 c 0.4,0.91 0.65,2.92 -0.8,3.01 c 0.17,-1.03 0.44,-2.03 0.8,-3.01 Z M 72.94,87.11 c 0.7,0.05 1.41,0.06 2.12,0.05 c -0.25,1.16 -1.64,0.65 -2.12,-0.05 Z"/></g>
<g><path fill="#7f5c4f" d="M 75.05,64.88 c -0.7,-0.02 -1.4,-0.01 -2.1,0.03 c 0.7,-0.91 1.4,-0.92 2.1,-0.03 Z M 67.15,67.43 c -0.3,0.28 -0.6,0.56 -0.89,0.85 c 0.07,-0.53 0.36,-0.81 0.89,-0.85 Z M 66.26,68.28 c -0.26,0.29 -0.52,0.59 -0.76,0.89 c -0.05,-0.56 0.21,-0.85 0.76,-0.89 Z M 65.51,82.83 c 0.25,0.3 0.5,0.59 0.75,0.88 c -0.57,-0.02 -0.82,-0.31 -0.75,-0.88 Z M 66.26,83.71 c 0.34,0.35 0.7,0.68 1.06,1.01 c -0.56,-0.12 -0.92,-0.45 -1.06,-1.01 Z"/></g>
<g><path fill="#795548" d="M 63.13,75.12 c -0.02,0.58 -0.01,1.17 0.01,1.76 c -1.29,-0.57 -1.29,-1.16 -0.01,-1.76 Z"/></g>
<g><path fill="#f9f7f6" d="M 31.05,93 c 0.01,-22.84 0.01,-45.68 0,-68.51 c -0.59,-3.18 3.46,-3.16 2.88,0 c 0,23.34 0,46.68 0.01,70.02 c -0.16,1.38 -0.92,1.83 -2.28,1.36 c -0.61,-0.85 -0.81,-1.8 -0.61,-2.87 Z M 36.24,93 c 0,-22.82 0.01,-45.65 0.01,-68.48 c -0.53,-2.6 2.68,-3.38 2.71,-1.01 c 0,23.68 0.02,47.35 0.07,71.03 c -0.11,1.53 -0.87,1.95 -2.29,1.25 c -0.51,-0.85 -0.68,-1.78 -0.5,-2.79 Z M 41.57,25 c -0.28,-3.69 2.87,-3.88 2.68,-0.55 c -0.01,23.37 -0.02,46.75 -0.04,70.13 c 0.23,1.74 -2.47,2.18 -2.65,-0.01 c 0.02,-23.19 0.03,-46.38 0.01,-69.57 Z M 54.08,43 c 0.2,-7.3 3.27,-13.08 9.22,-17.32 c 21.39,-13.53 43.02,16.99 23.39,32.4 c -0.39,0.35 -0.56,0.79 -0.53,1.32 c 1.41,1.5 2.82,3.03 4.22,4.59 c 8.84,12.42 2.01,28.99 -12.91,31.81 c -18.8,2.71 -30.74,-19.31 -18.33,-33.22 c 1.15,-1.06 2.28,-2.14 3.39,-3.22 c -1.26,-1.5 -2.62,-2.95 -4.06,-4.34 c -2.84,-3.5 -4.31,-7.5 -4.39,-12.02 Z M 56.28,74.96 c -0.04,8.36 3.77,14.22 11.43,17.58 c 5.79,2.13 11.26,1.49 16.41,-1.91 c 13.23,-9.54 9.03,-28.56 -6.65,-32.24 c -1.97,-0.3 -3.95,-0.5 -5.94,-0.58 c -5.42,-1.1 -9.4,-4.12 -11.94,-9.04 c -2.23,-6.15 -1.27,-11.74 2.88,-16.78 c 6.83,-8.07 19.24,-6.54 24.95,1.99 c 4,6.56 3.37,14.31 -2.25,19.68 c -1.17,1.1 -2.4,2.09 -3.69,2.96 c 0.28,0.69 0.8,0.98 1.55,0.86 c 12.41,-6.51 11.64,-23.13 -0.04,-30.12 c -9.47,-5.48 -21.11,-1.19 -25.45,8.64 c -3.97,10.49 1.71,20.45 12.14,23.64 c 2.11,0.33 4.22,0.59 6.35,0.77 c 6.89,1.07 11.39,4.93 13.5,11.58 c 1.39,6.55 -0.47,11.99 -5.59,16.32 c -14.67,11.26 -33.35,-6.95 -22.28,-22 c 1.58,-1.75 3.27,-3.34 5.09,-4.78 c -0.6,-1.06 -2,-0.35 -2.75,0.11 c -4.63,3.27 -7.2,7.71 -7.72,13.32 Z M 60.73,43 c 0.48,16.64 25.86,17.41 27.07,-0.5 c -1.52,-18.19 -26.7,-18.12 -27.07,0.5 Z M 63.14,42.01 c 3.41,-21.15 32.37,-6.32 18.74,8.25 c -7.52,6.86 -18.64,1.76 -18.74,-8.25 Z M 65.54,43 c 1.9,13.9 21.9,7.79 16.19,-4.33 c -4.69,-8.36 -16.13,-5.02 -16.19,4.33 Z M 61.59,70.94 c -0.36,0.98 -0.63,1.98 -0.8,3.01 c -0.15,1.37 -0.15,2.73 0.02,4.09 c 0.18,1.04 0.45,2.05 0.82,3.03 c 6.66,13.64 25.64,9.55 26.07,-5.56 c -1.38,-14.59 -19.86,-17.81 -26.11,-4.57 Z M 72.95,64.91 c 0.7,-0.04 1.4,-0.05 2.1,-0.03 c 4.98,0.69 8.26,3.42 9.85,8.19 c 0.48,1.95 0.47,3.89 -0.03,5.84 c -0.31,1.03 -0.73,2 -1.28,2.93 c -0.23,0.34 -0.47,0.68 -0.71,1.02 c -2.02,2.51 -4.62,3.94 -7.82,4.3 c -0.71,0.01 -1.42,0 -2.12,-0.05 c -2.1,-0.26 -3.98,-1.06 -5.62,-2.39 c -0.36,-0.33 -0.72,-0.66 -1.06,-1.01 c -0.25,-0.29 -0.5,-0.58 -0.75,-0.88 c -1.33,-1.77 -2.12,-3.75 -2.37,-5.95 c -0.02,-0.59 -0.03,-1.18 -0.01,-1.76 c 0.23,-2.21 1.01,-4.2 2.37,-5.95 c 0.24,-0.3 0.5,-0.6 0.76,-0.89 c 0.29,-0.29 0.59,-0.57 0.89,-0.85 c 1.69,-1.39 3.62,-2.23 5.8,-2.52 Z M 65.53,76 c 0.94,11.72 16.52,11.79 17.28,-0.47 c -1.48,-11.52 -16.43,-11.23 -17.28,0.47 Z"/></g>
</svg>
